<?xml version="1.0" encoding="UTF-8" standalone="no"?>
<svg
   xmlns:dc="http://purl.org/dc/elements/1.1/"
   xmlns:cc="http://creativecommons.org/ns#"
   xmlns:rdf="http://www.w3.org/1999/02/22-rdf-syntax-ns#"
   xmlns:svg="http://www.w3.org/2000/svg"
   xmlns="http://www.w3.org/2000/svg"
   xmlns:sodipodi="http://sodipodi.sourceforge.net/DTD/sodipodi-0.dtd"
   xmlns:inkscape="http://www.inkscape.org/namespaces/inkscape"
   role="img"
   viewBox="0 0 24 24"
   version="1.1"
   id="svg4553"
   sodipodi:docname="github-hover.svg"
   inkscape:version="0.92.4 (fd57863, 2020-04-02)">
  <metadata
     id="metadata4559">
    <rdf:RDF>
      <cc:Work
         rdf:about="">
        <dc:format>image/svg+xml</dc:format>
        <dc:type
           rdf:resource="http://purl.org/dc/dcmitype/StillImage" />
        <dc:title>GitHub icon</dc:title>
      </cc:Work>
    </rdf:RDF>
  </metadata>
  <defs
     id="defs4557" />
  <sodipodi:namedview
     pagecolor="#ffffff"
     bordercolor="#666666"
     borderopacity="1"
     objecttolerance="10"
     gridtolerance="10"
     guidetolerance="10"
     inkscape:pageopacity="0"
     inkscape:pageshadow="2"
     inkscape:window-width="2880"
     inkscape:window-height="1872"
     id="namedview4555"
     showgrid="false"
     inkscape:zoom="66.166667"
     inkscape:cx="12"
     inkscape:cy="10.790932"
     inkscape:window-x="120"
     inkscape:window-y="54"
     inkscape:window-maximized="1"
     inkscape:current-layer="svg4553" />
  <title
     id="title4549">GitHub icon</title>
  <path
     d="M12 .297c-6.63 0-12 5.373-12 12 0 5.303 3.438 9.8 8.205 11.385.6.113.82-.258.82-.577 0-.285-.01-1.04-.015-2.04-3.338.724-4.042-1.61-4.042-1.61C4.422 18.07 3.633 17.7 3.633 17.7c-1.087-.744.084-.729.084-.729 1.205.084 1.838 1.236 1.838 1.236 1.07 1.835 2.809 1.305 3.495.998.108-.776.417-1.305.76-1.605-2.665-.3-5.466-1.332-5.466-5.93 0-1.31.465-2.38 1.235-3.22-.135-.303-.54-1.523.105-3.176 0 0 1.005-.322 3.3 1.23.96-.267 1.98-.399 3-.405 1.02.006 2.04.138 3 .405 2.28-1.552 3.285-1.23 3.285-1.23.645 1.653.24 2.873.12 3.176.765.84 1.23 1.91 1.23 3.22 0 4.61-2.805 5.625-5.475 5.92.42.36.81 1.096.81 2.22 0 1.606-.015 2.896-.015 3.286 0 .315.21.69.825.57C20.565 22.092 24 17.592 24 12.297c0-6.627-5.373-12-12-12"
     id="path4551" />
  <path
     style="stroke-width:0.01511335;fill:#808080"
     d="M 8.2352645,23.681961 C 8.1620535,23.662569 7.7928472,23.528989 7.5853904,23.446835 6.4344018,22.991034 5.3206927,22.334606 4.3889169,21.562811 3.7785644,21.057251 3.1955089,20.472447 2.7067173,19.875567 1.2505852,18.097431 0.33489369,15.91917 0.08280167,13.633753 0.02732687,13.13083 0.01468375,12.884279 0.01460059,12.303778 0.0145174,11.723098 0.02772975,11.461228 0.08244654,10.959067 0.42239568,7.8391965 2.0181274,4.9364701 4.4825231,2.9550784 6.2494461,1.5344596 8.3618952,0.64613486 10.58539,0.3887072 c 0.543683,-0.0629455 0.686234,-0.0698269 1.435769,-0.0693094 0.783463,5.4099e-4 0.980748,0.0119579 1.571788,0.0909595 2.115475,0.28276571 4.076677,1.1072911 5.780857,2.4303794 0.673926,0.5232222 1.426462,1.2644237 1.970585,1.9409069 1.351161,1.6798365 2.222286,3.6813313 2.524522,5.8003384 0.420816,2.950381 -0.250295,5.909598 -1.897718,8.367853 -0.864162,1.289484 -1.998378,2.421189 -3.294827,3.287531 -0.838715,0.560467 -1.714995,0.998347 -2.703282,1.350844 l -0.226485,0.08078 -0.196473,1.4e-5 c -0.181356,1.2e-5 -0.203098,-0.0031 -0.282567,-0.04034 -0.109825,-0.05148 -0.215019,-0.156673 -0.266498,-0.266498 l -0.04036,-0.08609 -0.0029,-1.888123 c -0.0025,-1.619181 -0.0063,-1.916151 -0.02689,-2.084883 -0.0825,-0.676703 -0.308264,-1.222475 -0.664991,-1.607599 l -0.101493,-0.109572 h 0.05053 c 0.02779,0 0.193001,-0.02066 0.367129,-0.04585 0.986582,-0.142718 1.735211,-0.361224 2.411364,-0.703813 0.460588,-0.233369 0.828981,-0.499087 1.17963,-0.850859 0.811744,-0.814345 1.268925,-1.915401 1.412554,-3.401949 0.03391,-0.350988 0.04624,-1.041186 0.02362,-1.322418 -0.08218,-1.02176 -0.446386,-1.9076161 -1.106672,-2.6917697 L 18.399432,8.44674 18.442362,8.3197318 c 0.056,-0.1656745 0.114792,-0.4160285 0.148652,-0.6330291 0.04155,-0.2662973 0.03806,-0.9738944 -0.0062,-1.2545977 -0.05789,-0.3671447 -0.143601,-0.7048773 -0.261758,-1.0313743 -0.04041,-0.1116709 -0.05414,-0.1340764 -0.08799,-0.1435768 -0.08576,-0.024073 -0.473373,-0.010114 -0.653944,0.023551 -0.687277,0.1281321 -1.547554,0.5182634 -2.419581,1.0972678 L 14.984544,6.4954915 14.806378,6.4494009 C 13.904303,6.2160394 12.964466,6.0988986 11.993637,6.0988223 11.037912,6.0987467 10.146943,6.2052224 9.2615262,6.4253232 L 8.9880397,6.4933076 8.7174456,6.320976 C 7.7554029,5.708286 6.918222,5.3506502 6.2357498,5.2608187 5.9741915,5.2263907 5.7023216,5.2371263 5.6739688,5.2830023 5.648572,5.324095 5.5203346,5.726244 5.4713409,5.9184378 5.3604706,6.3533628 5.3176605,6.7431904 5.3304685,7.2012184 c 0.0122,0.4362785 0.074644,0.8012757 0.1921839,1.1233417 l 0.044571,0.1221281 -0.041294,0.049364 C 5.3455827,8.711643 5.2878131,8.7843003 5.2016577,8.9038918 4.738977,9.5461335 4.4511961,10.310269 4.3667563,11.120779 c -0.026977,0.258939 -0.03105,0.906481 -0.00773,1.228389 0.099262,1.370019 0.4474224,2.413332 1.0826986,3.244459 0.1479423,0.193552 0.4599766,0.516837 0.6488219,0.672216 0.8586462,0.706482 1.9803913,1.12352 3.5551552,1.32172 l 0.1409196,0.01774 -0.067134,0.06967 c -0.339739,0.35256 -0.5694284,0.858336 -0.6676701,1.47021 -0.00843,0.0525 -0.01493,0.05796 -0.1218871,0.10249 -0.2623709,0.109226 -0.5714837,0.193289 -0.8684726,0.236184 -0.1346973,0.01945 -0.2384137,0.02327 -0.4609572,0.01695 C 7.1938377,19.489266 7.0100773,19.445817 6.6634761,19.27925 6.4293493,19.166734 6.2493175,19.03779 6.0506878,18.840352 5.8697648,18.660515 5.7497619,18.505221 5.5755762,18.225517 5.1709399,17.575762 4.6401073,17.160948 4.0212465,17.010899 3.5995821,16.908663 3.164303,17.003731 3.1648773,17.197935 c 3.869e-4,0.130852 0.1681957,0.305794 0.5137121,0.535547 0.5471501,0.363831 0.9515128,0.911249 1.2909993,1.747726 0.3041368,0.749379 0.8841123,1.289438 1.6636607,1.549162 0.3871986,0.129005 0.6849721,0.173131 1.1712846,0.173573 0.3799111,3.47e-4 0.6197362,-0.02136 0.9870577,-0.08934 0.1087395,-0.02012 0.2012743,-0.03302 0.2056329,-0.02866 0.00436,0.0044 0.00813,0.498933 0.00837,1.099053 l 4.473e-4,1.091128 -0.040208,0.08577 c -0.055945,0.119341 -0.1492445,0.214983 -0.2655952,0.272263 -0.089999,0.04431 -0.1115469,0.04851 -0.2663362,0.05204 -0.092628,0.0021 -0.182017,2.27e-4 -0.1986417,-0.0042 z"
     id="path4561"
     inkscape:connector-curvature="0" />
</svg>
