<?xml version="1.0" encoding="UTF-8" standalone="no"?>
<!DOCTYPE svg PUBLIC "-//W3C//DTD SVG 1.1//EN" "http://www.w3.org/Graphics/SVG/1.1/DTD/svg11.dtd">
<svg version="1.1" xmlns="http://www.w3.org/2000/svg" xmlns:xlink="http://www.w3.org/1999/xlink" preserveAspectRatio="xMidYMid meet" viewBox="0 0 640 640" width="640" height="640"><defs><path d="M443.38 388.75L198.75 337.13L188.5 386.25L433.13 437.5L443.38 388.75ZM507.13 280L315.25 119.63L283.38 158.13L475.25 318.5L507.13 280ZM468.13 329.63L241.5 223.75L220.62 269.38L447.13 375L468.13 329.63ZM407.5 40L367.5 70L516.63 270.38L556.63 240.38L407.5 40ZM433.13 450L183.13 450L183.13 499.63L433.13 499.63L433.13 450ZM482.75 550L133.38 550L133.38 400L83.38 400L83.38 600L532.75 600L532.75 400L482.75 400L482.75 550Z" id="fEafYmwlZ"></path></defs><g><g><g><use xlink:href="#fEafYmwlZ" opacity="1" fill="#808080" fill-opacity="1"></use><g><use xlink:href="#fEafYmwlZ" opacity="1" fill-opacity="0" stroke="#000000" stroke-width="1" stroke-opacity="0"></use></g></g></g></g></svg>